<?xml version="1.0" standalone="no"?>
<!DOCTYPE svg PUBLIC "-//W3C//DTD SVG 20010904//EN"
 "http://www.w3.org/TR/2001/REC-SVG-20010904/DTD/svg10.dtd">
<svg version="1.0" xmlns="http://www.w3.org/2000/svg"
 width="260.000000pt" height="260.000000pt" viewBox="0 0 260.000000 260.000000"
 preserveAspectRatio="xMidYMid meet">
<metadata>
Created by potrace 1.11, written by Peter Selinger 2001-2013
</metadata>
<g transform="translate(0.000000,260.000000) scale(0.100000,-0.100000)"
fill="#000000" stroke="none">
<path d="M1227 2572 c-122 -31 -190 -106 -242 -268 -43 -133 -83 -191 -158
-229 -63 -31 -122 -32 -203 -5 -155 54 -275 36 -366 -53 -77 -74 -108 -151
-103 -255 4 -103 49 -178 159 -266 54 -44 90 -111 101 -188 l7 -46 59 -4 c65
-3 63 -6 74 72 9 65 42 126 95 173 94 86 133 153 146 255 13 106 83 190 182
218 60 18 107 15 202 -14 95 -28 166 -26 270 9 97 32 136 31 224 -2 28 -10 50
-18 51 -16 1 1 16 24 33 50 l32 48 -32 27 c-77 64 -112 120 -123 198 -32 216
-212 347 -408 296z"/>
<path d="M2046 2083 c-64 -19 -129 -64 -166 -114 -15 -22 -45 -83 -65 -137
-21 -53 -50 -120 -66 -148 -33 -59 -105 -129 -169 -166 -109 -62 -416 -240
-430 -248 -201 -123 -294 -161 -401 -165 -59 -3 -90 1 -189 20 -53 11 -157 5
-199 -10 -124 -44 -201 -150 -209 -285 -5 -96 20 -166 82 -233 125 -133 339
-137 465 -8 44 45 54 64 105 195 70 177 112 223 318 342 67 39 193 112 278
161 232 134 267 153 329 175 64 22 169 31 227 18 204 -45 307 -27 404 70 74
74 100 137 95 241 -2 57 -9 88 -28 125 -32 63 -99 127 -159 154 -60 26 -158
32 -222 13z"/>
<path d="M2069 1330 c0 -3 -3 -18 -5 -35 -15 -99 -34 -135 -113 -215 -89 -92
-115 -138 -135 -243 -18 -92 -34 -124 -82 -167 -79 -69 -152 -80 -292 -43
-115 30 -189 27 -295 -10 -75 -27 -117 -26 -205 4 -31 11 -56 18 -57 17 -1 -2
-15 -24 -32 -50 l-31 -47 53 -46 c56 -48 90 -105 99 -165 18 -119 69 -210 149
-263 71 -48 116 -60 201 -55 85 6 145 32 203 88 49 48 76 100 104 201 33 123
109 212 200 236 46 12 71 9 175 -23 149 -45 261 -24 357 69 65 64 91 126 91
222 1 121 -36 194 -143 279 -67 54 -94 100 -112 188 l-11 56 -59 4 c-33 2 -59
1 -60 -2z"/>
</g>
</svg>
